<svg xmlns="http://www.w3.org/2000/svg" xmlns:xlink="http://www.w3.org/1999/xlink" x="0px" y="0px"
	 viewBox="0 0 40 40" style="enable-background:new 0 0 40 40;" xml:space="preserve">
<path fill="#fff" d="M24.6,20c0-1.3-0.4-2.3-1.3-3.2s-2-1.3-3.2-1.3c-1.3,0-2.3,0.4-3.2,1.3c-0.9,0.9-1.3,2-1.3,3.2c0,1.3,0.4,2.3,1.3,3.2
	c0.9,0.9,2,1.3,3.2,1.3c1.3,0,2.3-0.4,3.2-1.3C24.1,22.3,24.6,21.3,24.6,20z M27,20c0,2-0.7,3.6-2.1,5c-1.4,1.4-3,2.1-5,2.1
	c-2,0-3.6-0.7-5-2.1S13,22,13,20s0.7-3.6,2.1-5s3-2.1,5-2.1c2,0,3.6,0.7,5,2.1S27,18,27,20z M29,12.7c0,0.5-0.2,0.8-0.5,1.2
	c-0.3,0.3-0.7,0.5-1.2,0.5c-0.5,0-0.8-0.2-1.2-0.5c-0.3-0.3-0.5-0.7-0.5-1.2c0-0.5,0.2-0.8,0.5-1.2c0.3-0.3,0.7-0.5,1.2-0.5
	c0.5,0,0.8,0.2,1.2,0.5C28.8,11.8,29,12.2,29,12.7z M20,8.7c-0.1,0-0.5,0-1.4,0c-0.8,0-1.5,0-1.9,0c-0.4,0-1,0-1.7,0.1
	c-0.7,0-1.3,0.1-1.8,0.2c-0.5,0.1-0.9,0.2-1.3,0.3c-0.6,0.2-1.1,0.6-1.6,1c-0.5,0.5-0.8,1-1,1.6c-0.1,0.3-0.2,0.8-0.3,1.3
	S8.8,14.3,8.8,15c0,0.7,0,1.3-0.1,1.7c0,0.4,0,1.1,0,1.9c0,0.8,0,1.3,0,1.4c0,0.1,0,0.5,0,1.4c0,0.8,0,1.5,0,1.9s0,1,0.1,1.7
	s0.1,1.3,0.2,1.8c0.1,0.5,0.2,0.9,0.3,1.3c0.2,0.6,0.6,1.1,1,1.6s1,0.8,1.6,1c0.3,0.1,0.8,0.2,1.3,0.3c0.5,0.1,1.1,0.1,1.8,0.2
	c0.7,0,1.3,0,1.7,0.1c0.4,0,1.1,0,1.9,0s1.3,0,1.4,0s0.5,0,1.4,0s1.5,0,1.9,0c0.4,0,1,0,1.7-0.1c0.7,0,1.3-0.1,1.8-0.2
	c0.5-0.1,0.9-0.2,1.3-0.3c0.6-0.2,1.1-0.6,1.6-1s0.8-1,1-1.6c0.1-0.3,0.2-0.8,0.3-1.3s0.1-1.1,0.2-1.8s0-1.3,0.1-1.7s0-1.1,0-1.9
	c0-0.8,0-1.3,0-1.4c0-0.1,0-0.5,0-1.4c0-0.8,0-1.5,0-1.9c0-0.4,0-1-0.1-1.7c0-0.7-0.1-1.3-0.2-1.8s-0.2-0.9-0.3-1.3
	c-0.2-0.6-0.6-1.1-1-1.6c-0.5-0.5-1-0.8-1.6-1c-0.3-0.1-0.8-0.2-1.3-0.3c-0.5-0.1-1.1-0.1-1.8-0.2c-0.7,0-1.3,0-1.7-0.1
	c-0.4,0-1.1,0-1.9,0C20.5,8.7,20.1,8.7,20,8.7z M33.7,20c0,2.7,0,4.6-0.1,5.7c-0.1,2.5-0.9,4.4-2.2,5.8c-1.4,1.4-3.3,2.1-5.8,2.2
	c-1,0.1-2.9,0.1-5.7,0.1c-2.7,0-4.6,0-5.7-0.1c-2.5-0.1-4.4-0.9-5.8-2.2c-1.4-1.4-2.1-3.3-2.2-5.8c-0.1-1-0.1-2.9-0.1-5.7
	s0-4.6,0.1-5.7c0.1-2.5,0.9-4.4,2.2-5.8s3.3-2.1,5.8-2.2c1-0.1,2.9-0.1,5.7-0.1s4.6,0,5.7,0.1c2.5,0.1,4.4,0.9,5.8,2.2
	c1.4,1.4,2.1,3.3,2.2,5.8C33.7,15.4,33.7,17.3,33.7,20z"/>
</svg>
