<svg xmlns="http://www.w3.org/2000/svg"  x="0px" y="0px"
	 viewBox="0 0 40 40" style="enable-background:new 0 0 40 40;" xml:space="preserve">
<path fill="#fff" d="M12.5,15.4v17.7H6.6V15.4C6.6,15.4,12.5,15.4,12.5,15.4z M12.9,9.9c0,0.9-0.3,1.6-0.9,2.2c-0.6,0.6-1.4,0.9-2.4,0.9h0
	c-1,0-1.8-0.3-2.4-0.9c-0.6-0.6-0.9-1.3-0.9-2.2c0-0.9,0.3-1.6,0.9-2.2s1.4-0.9,2.4-0.9s1.8,0.3,2.4,0.9C12.6,8.3,12.9,9.1,12.9,9.9
	z M33.7,23v10.1h-5.9v-9.5c0-1.2-0.2-2.2-0.7-2.9s-1.2-1.1-2.3-1.1c-0.8,0-1.4,0.2-1.9,0.6c-0.5,0.4-0.9,0.9-1.1,1.5
	c-0.1,0.4-0.2,0.8-0.2,1.4v9.9h-5.9c0-4.8,0-8.6,0-11.6s0-4.7,0-5.3l0-0.9h5.9V18h0c0.2-0.4,0.5-0.7,0.7-1s0.6-0.6,1-0.9
	c0.4-0.3,0.9-0.6,1.6-0.8c0.6-0.2,1.3-0.3,2-0.3c2,0,3.7,0.7,4.9,2C33.1,18.4,33.7,20.4,33.7,23L33.7,23z"/>
</svg>
